# AST/ASF file generated using VICON BodyLanguage
# -----------------------------------------------
:version 1.10
:name VICON
:units
  mass 1.0
  length 0.45
  angle deg
:documentation
   .ast/.asf automatically generated from VICON data using
   VICON BodyBuilder and BodyLanguage model FoxedUp or BRILLIANT.MOD
:root
   order TX TY TZ RX RY RZ
   axis XYZ
   position 0 0 0  
   orientation 0 0 0 
:bonedata
  begin
     id 1 
     name lhipjoint
     direction 0.635376 -0.686425 0.353719 
     length 2.47244 
     axis 0 0 0  XYZ
  end
  begin
     id 2 
     name lfemur
     direction 0.34202 -0.939693 0  
     length 7.25268  
     axis 0 0 20  XYZ
    dof rx ry rz
    limits (-160.0 20.0)
           (-70.0 70.0)
           (-60.0 70.0)
  end
  begin
     id 3 
     name ltibia
     direction 0.34202 -0.939693 0   
     length 7.6767   
     axis 0 0 20   XYZ
    dof rx
    limits (-10.0 170.0)
  end
  begin
     id 4 
     name lfoot
     direction 0.0803374 -0.220725 0.972022   
     length 2.22945   
     axis -90 7.62852e-016 20   XYZ
    dof rx rz
    limits (-45.0 90.0)
           (-70.0 20.0)
  end
  begin
     id 5 
     name ltoes
     direction 1.53579e-011 -4.21994e-011 1   
     length 1.11848   
     axis -90 7.62852e-016 20   XYZ
    dof rx
    limits (-90.0 20.0)
  end
  begin
     id 6 
     name rhipjoint
     direction -0.664428 -0.664335 0.342336   
     length 2.55466  
     axis 0 0 0  XYZ 
  end
  begin
     id 7 
     name rfemur
     direction -0.34202 -0.939693 0   
     length 6.83172   
     axis 0 0 -20   XYZ
    dof rx ry rz
    limits (-160.0 20.0)
           (-70.0 70.0)
           (-70.0 60.0)
  end
  begin
     id 8 
     name rtibia
     direction -0.34202 -0.939693 0   
     length 7.62692   
     axis 0 0 -20   XYZ
    dof rx
    limits (-10.0 170.0)
 end
 begin
     id 9 
     name rfoot
     direction -0.0949276 -0.260811 0.960711   
     length 2.19684  
     axis -90 -7.62852e-016 -20   XYZ
    dof rx rz
    limits (-45.0 90.0)
           (-20.0 70.0)
  end
  begin
     id 10 
     name rtoes
     direction -1.53543e-011 -4.2183e-011 1   
     length 1.09848   
     axis -90 -7.62852e-016 -20   XYZ
    dof rx
    limits (-90.0 20.0)
  end
  begin
     id 11 
     name lowerback
     direction 0.0118782 0.999815 -0.0151555   
     length 2.15772   
     axis 0 0 0   XYZ
    dof rx ry rz
    limits (-20.0 45.0)
           (-30.0 30.0)
           (-30.0 30.0)
  end
  begin
     id 12 
     name upperback
     direction 0.00130825 0.999065 0.0432113   
     length 2.14863   
     axis 0 0 0   XYZ
    dof rx ry rz
    limits (-20.0 45.0)
           (-30.0 30.0)
           (-30.0 30.0)
  end
  begin
     id 13 
     name thorax
     direction -0.00347005 0.998773 0.0494011   
     length 2.14936   
     axis 0 0 0   XYZ
    dof rx ry rz
    limits (-20.0 45.0)
           (-30.0 30.0)
           (-30.0 30.0)
  end
  begin
     id 14 
     name lowerneck
     direction -0.0262159 0.99424 0.103921   
     length 1.69373   
     axis 0 0 0   XYZ
    dof rx ry rz
    limits (-20.0 45.0)
           (-30.0 30.0)
           (-30.0 30.0)
  end
  begin
     id 15 
     name upperneck
     direction 0.0353511 0.977394 -0.20845   
     length 1.70857   
     axis 0 0 0   XYZ
    dof rx ry rz
    limits (-20.0 45.0)
           (-30.0 30.0)
           (-30.0 30.0)
  end
  begin
     id 16
     name head
     direction 0.0139214 0.996594 -0.0812836  
     length 1.72777  
     axis 0 0 0   XYZ
    dof rx ry rz
    limits (-20.0 45.0)
           (-30.0 30.0)
           (-30.0 30.0)
  end
  begin
     id 17 
     name lclavicle
     direction 0.841247 0.537205 -0.0609508  
     length 3.55371  
     axis 0 0 0   XYZ
    dof ry rz
    limits (-20.0 10.0)
           (0.0 20.0)
  end
  begin
     id 18 
     name lhumerus
     direction 1 -4.48964e-011 1.60116e-018   
     length 4.91377   
     axis -180 -30 -90   XYZ
    dof rx ry rz
    limits (-60.0 90.0)
           (-90.0 90.0)
           (-90.0 90.0)
  end
  begin
     id 19
     name lradius
     direction 1 -4.48989e-011 -8.93847e-027   
     length 3.00291   
     axis -180 -30 -90   XYZ
    dof rx
    limits (-10.0 170.0)
  end
  begin
     id 20
     name lwrist
     direction 1 -4.48932e-011 -7.31504e-027   
     length 1.50145   
     axis 5.74121e-015 90 90   XYZ
    dof ry
    limits (-180.0 0.0)
 end
  begin
     id 21 
     name lhand
     direction 1 -4.48971e-011 -1.46301e-026   
     length 0.450922   
     axis 9.33524e-015 90 90   XYZ
    dof rx rz
    limits (-90.0 90.0)
           (-45.0 45.0)
  end
  begin
     id 22 
     name lfingers
     direction 1 -4.49039e-011 -2.92602e-026   
     length 0.363545   
     axis 1.86705e-014 90 90   XYZ
    dof rx
    limits (0.0 90.0)
  end
  begin
     id 23
     name lthumb
     direction 0.707107 -6.34941e-011 0.707107   
     length 0.52198   
     axis -90 45 2.85299e-015   XYZ
    dof rx rz
    limits (-45.0 45.0)
           (-45.0 45.0)
  end
  begin
     id 24 
     name rclavicle
     direction -0.825079 0.56158 -0.0622297   
     length 3.39909  
     axis 0 0 0   XYZ 
    dof ry rz
    limits (-10.0 20.0)
           (-20.0 0.0)
  end
  begin
     id 25 
     name rhumerus
     direction -1 -4.48965e-011 1.61691e-027  
     length 4.86725   
     axis -180 30 90   XYZ
    dof rx ry rz
    limits (-90.0 60.0)
           (-90.0 90.0)
           (-90.0 90.0)
  end
  begin
     id 26 
     name rradius
     direction -1 -4.48964e-011 -2.25776e-027   
     length 3.17144   
     axis -180 30 90   XYZ
    dof rx
    limits (-10.0 170.0)
  end
  begin
     id 27 
     name rwrist
     direction -1 -4.48961e-011 -7.31504e-027   
     length 1.58572   
     axis 5.74121e-015 -90 -90   XYZ
    dof ry
    limits (-180.0 0.0)
  end
  begin
     id 28
     name rhand
     direction -1 -4.49013e-011 -1.46301e-026   
     length 0.419368   
     axis 9.33524e-015 -90 -90   XYZ
    dof rx rz
    limits (-90.0 90.0)
           (-45.0 45.0)
  end
  begin
     id 29
     name rfingers
     direction -1 -4.489e-011 -2.92602e-026   
     length 0.338105   
     axis 1.86705e-014 -90 -90   XYZ
    dof rx
    limits (0.0 90.0)
  end
  begin
     id 30
     name rthumb
     direction -0.707107 -6.35022e-011 0.707107   
     length 0.485453   
     axis -90 -45 -2.85299e-015   XYZ
    dof rx rz
    limits (-45.0 45.0)
           (-45.0 45.0)
  end
:hierarchy
  begin
    root lhipjoint rhipjoint lowerback
    lhipjoint lfemur
    lfemur ltibia
    ltibia lfoot
    lfoot ltoes
    rhipjoint rfemur
    rfemur rtibia
    rtibia rfoot
    rfoot rtoes
    lowerback upperback
    upperback thorax
    thorax lowerneck lclavicle rclavicle
    lowerneck upperneck
    upperneck head
    lclavicle lhumerus
    lhumerus lradius
    lradius lwrist
    lwrist lhand lthumb
    lhand lfingers
    rclavicle rhumerus
    rhumerus rradius
    rradius rwrist
    rwrist rhand rthumb
    rhand rfingers
  end

#!OML:ASF H:\Swim 2\Project 1\Capture day 1\Session 1\male.ASF
:FULLY-SPECIFIED
:DEGREES
550
root 2.17328 13.8067 9.60186 68.6769 3.01562 175.892
lowerback 30.3281 -4.96444 2.9412
upperback 5.0286 -5.17916 -5.22784
thorax -11.0635 -2.0871 -5.33095
lowerneck -9.47033 -2.50199 -3.55397
upperneck 34.2616 -2.28334 3.87686
head 13.1301 0.231859 2.11458
rclavicle -2.38542e-014 -5.98342e-014
rhumerus -373.267 -36.8637 18.7068
rradius 74.5096
rwrist 365.795
rhand -41.7618 29.4774
rfingers 7.12502
rthumb -14.6657 0.0160455
lclavicle -2.38542e-014 -5.98342e-014
lhumerus -555.593 -24.6556 -132.225
lradius 29.4465
lwrist -575.407
lhand -4.99526 8.72194
lfingers 7.12502
lthumb 20.798 37.6273
rfemur 41.6806 13.9889 28.3158
rtibia 16.1634
rfoot 44.7292 6.03224
rtoes 15.3448
lfemur 12.1463 -2.35029 -27.8181
ltibia 27.203
lfoot 5.94042 16.1292
ltoes 24.7871
551
root 2.21282 13.8106 9.61126 69.1031 2.98903 175.738
lowerback 29.9395 -5.01685 3.07579
upperback 4.79473 -5.28448 -5.25913
thorax -11.1879 -2.18026 -5.40561
lowerneck -9.38993 -2.21192 -3.96671
upperneck 34.5292 -1.62563 3.54215
head 13.2008 0.438567 2.1564
rclavicle 6.36111e-015 2.90226e-014
rhumerus -374.734 -35.1932 17.247
rradius 76.0124
rwrist 365.6
rhand -42.9961 30.2144
rfingers 7.12502
rthumb -15.8546 0.843525
lclavicle 6.36111e-015 2.90226e-014
lhumerus -556.858 -26.1592 -132.206
lradius 29.5115
lwrist -576.876
lhand -4.89295 9.05752
lfingers 7.12502
lthumb 20.8963 37.9521
rfemur 40.6983 14.1334 28.1839
rtibia 16.729
rfoot 44.3242 5.96777
rtoes 15.4504
lfemur 12.0606 -3.08576 -27.7049
ltibia 26.8395
lfoot 4.95014 15.7703
ltoes 23.1491
552
root 2.2508 13.8129 9.617 69.4813 3.02383 175.542
lowerback 29.6938 -5.10459 3.0432
upperback 4.47585 -5.45966 -5.03181
thorax -11.4267 -2.29922 -5.07672
lowerneck -9.31804 -1.82688 -4.71931
upperneck 34.9469 -0.673563 3.07615
head 13.3312 0.725497 2.25441
rclavicle -1.11319e-014 -3.29983e-014
rhumerus -375.529 -33.6404 15.5644
rradius 77.4187
rwrist 364.997
rhand -44.0497 31.0561
rfingers 7.12502
rthumb -16.869 1.76878
lclavicle -1.11319e-014 -3.29983e-014
lhumerus -557.699 -27.9047 -132.136
lradius 29.5543
lwrist -578.378
lhand -4.79602 9.36874
lfingers 7.12502
lthumb 20.9894 38.253
rfemur 39.7626 14.3521 28.1592
rtibia 16.9892
rfoot 43.8911 5.86295
rtoes 15.7466
lfemur 12.0815 -3.79251 -27.5307
ltibia 26.6307
lfoot 4.08117 15.4896
ltoes 21.4513
553
root 2.28691 13.8131 9.61936 69.82 3.11354 175.318
lowerback 29.5922 -5.24365 2.80479
upperback 4.08741 -5.72566 -4.52253
thorax -11.7568 -2.44436 -4.29067
lowerneck -9.31057 -1.33829 -5.89461
upperneck 35.4515 0.597204 2.53785
head 13.5057 1.09421 2.44815
rclavicle -3.02153e-014 1.16289e-014
rhumerus -375.621 -32.1928 13.7212
rradius 78.7145
rwrist 364.079
rhand -44.9486 31.8768
rfingers 7.12502
rthumb -17.7342 2.66554
lclavicle -3.02153e-014 1.16289e-014
lhumerus -558.081 -29.9702 -132.053
lradius 29.55
lwrist -579.847
lhand -4.71135 9.65896
lfingers 7.12502
lthumb 21.0707 38.5342
rfemur 38.8407 14.64 28.2294
rtibia 17.0142
rfoot 43.4084 5.73668
rtoes 16.2667
lfemur 12.1919 -4.41143 -27.2875
ltibia 26.5838
lfoot 3.34347 15.3304
ltoes 19.9947
554
root 2.32157 13.8107 9.61765 70.117 3.24888 175.072
lowerback 29.6363 -5.4329 2.37705
upperback 3.66519 -6.06558 -3.76411
thorax -12.1375 -2.59804 -3.10109
lowerneck -9.46079 -0.770734 -7.43973
upperneck 35.9842 2.14389 1.95793
head 13.7169 1.53027 2.73365
rclavicle -2.54444e-014 -4.30369e-014
rhumerus -375.153 -30.8504 11.8022
rradius 79.8828
rwrist 363.031
rhand -45.71 32.7289
rfingers 7.12502
rthumb -18.4667 3.58548
lclavicle -2.54444e-014 -4.30369e-014
lhumerus -558.069 -32.3505 -131.983
lradius 29.4693
lwrist -581.233
lhand -4.66081 9.93846
lfingers 7.12502
lthumb 21.1193 38.8083
rfemur 37.9007 14.9906 28.385
rtibia 16.903
rfoot 42.8604 5.61417
rtoes 16.9025
lfemur 12.3962 -4.91822 -26.9791
ltibia 26.6816
lfoot 2.79581 15.3437
ltoes 19.1572
555
root 2.35554 13.8059 9.61499 70.4686 3.40701 174.815
lowerback 29.3084 -5.51383 2.62865
upperback 3.91786 -6.09782 -3.48061
thorax -12.4386 -2.66708 -3.19267
lowerneck -9.65676 -0.446649 -7.94479
upperneck 35.8905 2.86393 1.68488
head 13.6856 1.73453 2.80863
rclavicle 3.81667e-014 2.05742e-014
rhumerus -376.679 -29.5512 10.4078
rradius 81.1492
rwrist 362.038
rhand -46.3996 33.5748
rfingers 7.12502
rthumb -19.13 4.49563
lclavicle 3.81667e-014 2.05742e-014
lhumerus -559.775 -33.9574 -131.533
lradius 29.5551
lwrist -582.631
lhand -4.6247 10.2516
lfingers 7.12502
lthumb 21.154 39.1175
rfemur 36.7981 15.3999 28.5619
rtibia 16.7665
rfoot 42.1935 5.48872
rtoes 17.6128
lfemur 12.6031 -5.2802 -26.602
ltibia 26.8852
lfoot 2.4971 15.4883
ltoes 18.9735
